<?xml version="1.0" standalone="no"?><!DOCTYPE svg PUBLIC "-//W3C//DTD SVG 1.1//EN" "http://www.w3.org/Graphics/SVG/1.1/DTD/svg11.dtd"><svg class="icon" width="16px" height="16.00px" viewBox="0 0 1024 1024" version="1.1" xmlns="http://www.w3.org/2000/svg"><path fill="#666666" d="M608 480q0-13-9.5-22.5t-22.5-9.5l-128 0q-13 0-22.5 9.5t-9.5 22.5 9.5 22.5 22.5 9.5l128 0q13 0 22.5-9.5t9.5-22.5zm288-96l0 480q0 13-9.5 22.5t-22.5 9.5l-704 0q-13 0-22.5-9.5t-9.5-22.5l0-480q0-13 9.5-22.5t22.5-9.5l704 0q13 0 22.5 9.5t9.5 22.5zm32-224l0 128q0 13-9.5 22.5t-22.5 9.5l-768 0q-13 0-22.5-9.5t-9.5-22.5l0-128q0-13 9.5-22.5t22.5-9.5l768 0q13 0 22.5 9.5t9.5 22.5z" /></svg>